<svg width="211" height="41" viewBox="0 0 211 41" fill="none" xmlns="http://www.w3.org/2000/svg">
<path d="M0.302246 0.238794C0.302246 0.192943 0.320662 0.148968 0.353443 0.116547C0.386224 0.0841253 0.430687 0.065912 0.477047 0.065912L19.5117 0.000126423C24.9541 -0.0187621 30.1811 2.07959 34.0429 5.83358C37.9047 9.58758 40.085 14.6897 40.104 20.0176V20.3756C40.1227 25.7036 37.9787 30.8207 34.1436 34.6014C30.3085 38.3821 25.0964 40.5166 19.654 40.5354L0.619359 40.6012C0.573266 40.6012 0.52904 40.5832 0.496303 40.5511C0.463566 40.519 0.444966 40.4755 0.444558 40.4299L0.302246 0.238794ZM18.6191 7.05766C18.6191 7.03422 18.6114 7.01143 18.5971 6.99268C18.5829 6.97393 18.563 6.96023 18.5402 6.95362L4.18033 2.68208C4.16397 2.67733 4.14671 2.67641 4.12993 2.6794C4.11315 2.68239 4.0973 2.6892 4.08364 2.69929C4.06999 2.70939 4.05889 2.72249 4.05124 2.73756C4.04359 2.75263 4.03959 2.76925 4.03956 2.78611V37.7877C4.03959 37.8046 4.04359 37.8212 4.05124 37.8363C4.05889 37.8513 4.06999 37.8644 4.08364 37.8745C4.0973 37.8846 4.11315 37.8914 4.12993 37.8944C4.14671 37.8974 4.16397 37.8965 4.18033 37.8917L18.5418 33.6232C18.5645 33.6166 18.5845 33.6029 18.5987 33.5842C18.6129 33.5654 18.6206 33.5426 18.6207 33.5192L18.6191 7.05766Z" fill="white"/>
<path d="M14.712 20.2834C14.7104 21.2221 15.1987 21.984 15.8027 21.985C16.4067 21.986 16.8977 21.2259 16.8993 20.2871C16.901 19.3484 16.4127 18.5866 15.8087 18.5855C15.2047 18.5845 14.7137 19.3446 14.712 20.2834Z" fill="white"/>
<path d="M87.4109 20.3008C87.4109 21.5126 87.1696 22.7125 86.7007 23.832C86.2318 24.9516 85.5446 25.9688 84.6782 26.8257C83.8118 27.6825 82.7833 28.3622 81.6514 28.8259C80.5194 29.2897 79.3062 29.5283 78.0809 29.5283C75.6065 29.5283 73.2334 28.5562 71.4837 26.8257C69.734 25.0952 68.751 22.7481 68.751 20.3008C68.751 17.8535 69.734 15.5064 71.4837 13.7759C73.2334 12.0454 75.6065 11.0732 78.0809 11.0732C79.3062 11.0732 80.5194 11.3119 81.6514 11.7756C82.7833 12.2394 83.8118 12.9191 84.6782 13.7759C85.5446 14.6328 86.2318 15.65 86.7007 16.7696C87.1696 17.8891 87.4109 19.089 87.4109 20.3008ZM83.9337 17.8952C82.9529 14.4927 79.4043 13.0645 76.1588 13.9785C72.896 14.8949 71.6121 18.0171 71.9226 21.2294C72.1345 23.4311 73.1375 25.0649 74.9315 26.1308C76.4693 27.0447 78.7192 27.1544 80.3876 26.5183C83.9362 25.168 84.8997 21.2538 83.9337 17.8952Z" fill="white"/>
<path d="M107.884 20.3032C107.884 22.7499 106.902 25.0963 105.153 26.8264C103.403 28.5564 101.031 29.5284 98.557 29.5284C96.0832 29.5284 93.7107 28.5564 91.9614 26.8264C90.2122 25.0963 89.2295 22.7499 89.2295 20.3032C89.2295 19.0918 89.4707 17.8922 89.9395 16.773C90.4082 15.6537 91.0953 14.6367 91.9614 13.7801C92.8276 12.9235 93.8558 12.244 94.9875 11.7803C96.1192 11.3167 97.3321 11.0781 98.557 11.0781C99.7819 11.0781 100.995 11.3167 102.126 11.7803C103.258 12.244 104.286 12.9235 105.153 13.7801C106.019 14.6367 106.706 15.6537 107.174 16.773C107.643 17.8922 107.884 19.0918 107.884 20.3032ZM101.036 14.1759C97.4702 12.8427 93.685 14.3612 92.6253 18.1073C91.6889 21.4195 92.9038 25.4045 96.45 26.5744C99.0129 27.4201 102.049 26.7036 103.589 24.3906C105.743 21.149 104.984 15.6505 101.036 14.1759Z" fill="white"/>
<path d="M179.562 23.7961C180.888 26.3407 183.781 27.3375 186.521 26.6965C187.99 26.3537 189.063 25.5372 189.74 24.247C189.766 24.1976 189.805 24.156 189.853 24.1269C189.902 24.0977 189.957 24.082 190.013 24.0813L193.007 24.0667C193.336 24.0634 193.425 24.2072 193.274 24.4981C191.534 27.8372 188.715 29.4831 184.816 29.436C182.041 29.4035 179.753 28.3994 177.953 26.4235C174.976 23.1576 174.919 17.6006 177.849 14.2956C179.908 11.9737 182.568 10.9338 185.829 11.1759C189.363 11.4375 191.865 13.1468 193.335 16.3039C193.348 16.3309 193.353 16.3605 193.351 16.3901C193.348 16.4196 193.339 16.4481 193.323 16.4731C193.307 16.498 193.284 16.5185 193.258 16.5328C193.232 16.5471 193.202 16.5548 193.173 16.555L190.117 16.5525C190.033 16.5526 189.95 16.5303 189.877 16.4878C189.805 16.4453 189.746 16.3843 189.705 16.3112C188.448 14.0543 185.972 13.3451 183.544 13.8618C181.593 14.2794 180.204 15.3753 179.377 17.1497C178.458 19.1287 178.539 21.8341 179.562 23.7961Z" fill="white"/>
<path d="M51.3452 11.4242C51.3452 11.4055 51.3527 11.3875 51.3661 11.3742C51.3795 11.361 51.3977 11.3535 51.4166 11.3535L58.0925 11.3876C59.246 11.3936 60.387 11.6164 61.4504 12.0435C62.5138 12.4705 63.4788 13.0934 64.2903 13.8765C65.1018 14.6595 65.7438 15.5875 66.1797 16.6074C66.6157 17.6274 66.837 18.7192 66.831 19.8206L66.8261 20.9491C66.8205 22.0506 66.5877 23.1402 66.1411 24.1556C65.6944 25.171 65.0426 26.0924 64.2229 26.8671C63.4032 27.6418 62.4316 28.2547 61.3637 28.6708C60.2958 29.0868 59.1524 29.2979 57.9988 29.2919L51.323 29.2578C51.3134 29.2578 51.3039 29.2559 51.295 29.2522C51.2862 29.2485 51.2782 29.2431 51.2715 29.2362C51.2649 29.2294 51.2597 29.2213 51.2562 29.2125C51.2528 29.2036 51.2512 29.1942 51.2515 29.1847L51.3452 11.4242ZM54.2457 14.0102V26.684C54.2457 26.7151 54.2519 26.7458 54.2639 26.7745C54.2759 26.8032 54.2935 26.8293 54.3157 26.8512C54.3379 26.8732 54.3642 26.8906 54.3932 26.9025C54.4222 26.9143 54.4533 26.9204 54.4847 26.9204H57.7771C59.3724 26.9204 60.9025 26.2929 62.0306 25.1758C63.1587 24.0587 63.7925 22.5436 63.7925 20.9637V19.7305C63.7925 18.1506 63.1587 16.6355 62.0306 15.5184C60.9025 14.4013 59.3724 13.7738 57.7771 13.7738H54.4847C54.4213 13.7738 54.3605 13.7986 54.3157 13.843C54.2709 13.8873 54.2457 13.9475 54.2457 14.0102Z" fill="white"/>
<path d="M119.322 22.0119L123.622 29.1142C123.633 29.1323 123.639 29.1531 123.639 29.1743C123.64 29.1955 123.634 29.2163 123.624 29.2347C123.614 29.2531 123.599 29.2683 123.581 29.2788C123.562 29.2893 123.542 29.2947 123.521 29.2945L120.443 29.2921C120.358 29.2913 120.275 29.2689 120.202 29.227C120.129 29.1851 120.068 29.1252 120.026 29.0532L116.15 22.3824C116.103 22.3009 116.034 22.2332 115.952 22.1862C115.869 22.1391 115.775 22.1143 115.679 22.1143L113.902 22.1118C113.853 22.1118 113.805 22.1311 113.77 22.1654C113.735 22.1997 113.715 22.2462 113.715 22.2946L113.725 29.063C113.725 29.1231 113.701 29.1807 113.658 29.2233C113.615 29.2658 113.557 29.2896 113.496 29.2896L110.923 29.2799C110.803 29.2799 110.743 29.2206 110.743 29.102V11.4999C110.743 11.4624 110.758 11.4265 110.785 11.4C110.812 11.3734 110.848 11.3586 110.886 11.3586C112.874 11.3521 114.845 11.3504 116.8 11.3537C118.604 11.3537 120.339 11.6559 121.665 12.7844C122.873 13.8105 123.506 15.2972 123.444 16.8254C123.341 19.3878 121.99 21.0541 119.393 21.8242C119.288 21.8551 119.264 21.9177 119.322 22.0119ZM113.71 13.8982V19.6112C113.71 19.6339 113.715 19.6564 113.724 19.6774C113.732 19.6984 113.745 19.7175 113.761 19.7336C113.778 19.7496 113.797 19.7624 113.818 19.7711C113.839 19.7798 113.862 19.7842 113.885 19.7842H117.335C118.148 19.7842 118.927 19.4864 119.501 18.9562C120.076 18.4259 120.398 17.7068 120.398 16.957V16.5524C120.398 15.8026 120.076 15.0834 119.501 14.5532C118.927 14.023 118.148 13.7252 117.335 13.7252H113.885C113.839 13.7252 113.794 13.7434 113.761 13.7758C113.729 13.8083 113.71 13.8523 113.71 13.8982Z" fill="white"/>
<path d="M126.318 13.5953L126.32 11.5188C126.32 11.4754 126.337 11.4339 126.368 11.4033C126.399 11.3727 126.441 11.3554 126.485 11.3554L138.817 11.3481C138.861 11.3481 138.902 11.3653 138.933 11.396C138.964 11.4266 138.982 11.4681 138.982 11.5114L138.997 13.5734C138.997 13.5948 138.992 13.6161 138.984 13.6359C138.976 13.6557 138.964 13.6737 138.948 13.6889C138.933 13.704 138.915 13.716 138.895 13.7242C138.875 13.7324 138.853 13.7367 138.831 13.7367L134.341 13.7562C134.298 13.7562 134.256 13.7734 134.225 13.804C134.194 13.8346 134.176 13.8762 134.176 13.9195L134.169 29.1306C134.169 29.1739 134.152 29.2154 134.121 29.246C134.09 29.2766 134.048 29.2939 134.004 29.2939L131.328 29.2865C131.306 29.2865 131.284 29.2823 131.264 29.2741C131.244 29.2659 131.226 29.2539 131.211 29.2387C131.196 29.2236 131.183 29.2056 131.175 29.1857C131.167 29.1659 131.162 29.1447 131.162 29.1232L131.167 13.9C131.167 13.8785 131.163 13.8573 131.155 13.8375C131.147 13.8177 131.134 13.7997 131.119 13.7845C131.104 13.7693 131.086 13.7573 131.066 13.7491C131.045 13.7409 131.024 13.7367 131.002 13.7367L126.483 13.7586C126.461 13.7586 126.44 13.7544 126.42 13.7462C126.4 13.738 126.381 13.7259 126.366 13.7108C126.351 13.6956 126.338 13.6776 126.33 13.6578C126.322 13.638 126.318 13.6168 126.318 13.5953Z" fill="white"/>
<path d="M144.946 22.3044L144.958 29.1118C144.958 29.159 144.939 29.2042 144.905 29.2376C144.87 29.271 144.824 29.2897 144.776 29.2897L142.171 29.2994C142.146 29.2998 142.121 29.2952 142.098 29.286C142.075 29.2769 142.054 29.2633 142.037 29.2461C142.019 29.2288 142.005 29.2083 141.996 29.1857C141.986 29.163 141.981 29.1387 141.981 29.1142L141.971 11.5122C141.971 11.4147 142.026 11.3651 142.136 11.3635C143.842 11.3537 145.627 11.344 147.494 11.3342C150.451 11.3196 153.268 11.9387 154.372 14.9195C154.774 16.0049 154.797 17.1398 154.441 18.3244C153.874 20.2059 152.425 21.3222 150.579 21.8462C150.504 21.869 150.486 21.9137 150.527 21.9803L154.845 29.0874C154.857 29.1077 154.864 29.1308 154.864 29.1544C154.864 29.178 154.858 29.2012 154.846 29.2217C154.834 29.2422 154.817 29.2593 154.797 29.2712C154.776 29.2832 154.753 29.2895 154.729 29.2897L151.545 29.2848C151.499 29.2848 151.453 29.2727 151.413 29.2496C151.373 29.2265 151.339 29.1932 151.316 29.1532L147.383 22.3849C147.336 22.304 147.268 22.2369 147.185 22.1903C147.103 22.1437 147.01 22.1192 146.915 22.1192L145.128 22.1241C145.006 22.1241 144.946 22.1842 144.946 22.3044ZM144.921 13.9299L144.96 19.6234C144.96 19.647 144.965 19.6703 144.974 19.6921C144.984 19.7138 144.997 19.7336 145.014 19.7501C145.031 19.7667 145.051 19.7797 145.073 19.7885C145.095 19.7973 145.119 19.8017 145.143 19.8014L148.598 19.777C149.403 19.7714 150.174 19.4758 150.74 18.9552C151.306 18.4347 151.621 17.7317 151.617 17.0009L151.612 16.4647C151.609 16.1026 151.528 15.7445 151.373 15.4109C151.218 15.0773 150.992 14.7748 150.708 14.5206C150.424 14.2664 150.088 14.0656 149.718 13.9295C149.348 13.7934 148.953 13.7249 148.553 13.7276L145.098 13.752C145.051 13.7527 145.006 13.7717 144.973 13.805C144.94 13.8383 144.921 13.8832 144.921 13.9299Z" fill="white"/>
<path d="M161.784 25.7451L160.584 29.1793C160.574 29.2082 160.555 29.2333 160.53 29.2512C160.505 29.2691 160.474 29.2789 160.444 29.2792L157.629 29.2963C157.605 29.2964 157.581 29.2908 157.56 29.28C157.539 29.2692 157.52 29.2535 157.506 29.2341C157.492 29.2148 157.483 29.1924 157.48 29.1689C157.476 29.1453 157.478 29.1213 157.486 29.0988L163.874 11.4261C163.884 11.3968 163.903 11.3714 163.929 11.3534C163.955 11.3355 163.985 11.326 164.017 11.3262L167.267 11.3359C167.298 11.3361 167.328 11.3455 167.353 11.3629C167.378 11.3803 167.397 11.4049 167.408 11.4334L173.795 29.0988C173.804 29.1214 173.806 29.1457 173.803 29.1696C173.8 29.1935 173.791 29.2162 173.777 29.2359C173.763 29.2556 173.744 29.2715 173.722 29.2825C173.701 29.2934 173.677 29.299 173.652 29.2987L170.826 29.2841C170.795 29.2838 170.765 29.274 170.74 29.2561C170.714 29.2382 170.695 29.2131 170.685 29.1841L169.48 25.7451C169.47 25.7162 169.451 25.6911 169.426 25.6732C169.401 25.6553 169.371 25.6455 169.34 25.6452H161.925C161.894 25.6455 161.864 25.6553 161.838 25.6732C161.813 25.6911 161.794 25.7162 161.784 25.7451ZM162.708 23.147C162.704 23.1585 162.703 23.1708 162.705 23.1828C162.707 23.1948 162.712 23.2062 162.719 23.216C162.726 23.2258 162.736 23.2337 162.747 23.2391C162.758 23.2445 162.77 23.2472 162.782 23.2469L168.475 23.2567C168.487 23.2569 168.499 23.2543 168.51 23.2489C168.521 23.2435 168.531 23.2356 168.538 23.2257C168.545 23.2159 168.55 23.2046 168.552 23.1925C168.554 23.1805 168.553 23.1683 168.549 23.1568L165.715 15.0552C165.71 15.0408 165.7 15.0282 165.687 15.0193C165.675 15.0103 165.66 15.0054 165.644 15.0051C165.629 15.0049 165.613 15.0093 165.6 15.0178C165.588 15.0263 165.578 15.0385 165.572 15.0528L162.708 23.147Z" fill="white"/>
<path d="M199.777 29.2987L196.955 29.2914C196.931 29.2914 196.908 29.2819 196.891 29.265C196.874 29.2481 196.864 29.2251 196.864 29.2012L196.862 11.4432C196.862 11.4193 196.871 11.3963 196.888 11.3794C196.905 11.3625 196.929 11.353 196.953 11.353L199.755 11.3433C199.779 11.3433 199.802 11.3528 199.819 11.3697C199.836 11.3866 199.846 11.4095 199.846 11.4334L199.848 19.2961C199.848 19.3145 199.854 19.3324 199.865 19.3474C199.875 19.3624 199.891 19.3739 199.908 19.3802C199.925 19.3866 199.944 19.3876 199.962 19.383C199.98 19.3784 199.996 19.3685 200.009 19.3546L206.874 11.3701C206.883 11.3602 206.893 11.3522 206.905 11.3468C206.917 11.3413 206.93 11.3384 206.943 11.3384L210.452 11.3457C210.47 11.3458 210.487 11.3508 210.501 11.3601C210.516 11.3694 210.528 11.3826 210.535 11.3983C210.542 11.4139 210.545 11.4312 210.542 11.4483C210.54 11.4653 210.533 11.4813 210.521 11.4944L202.796 20.2783C202.781 20.2951 202.774 20.3165 202.774 20.3385C202.774 20.3605 202.783 20.3816 202.798 20.3978L210.63 29.1354C210.642 29.1483 210.65 29.1643 210.653 29.1815C210.655 29.1987 210.653 29.2164 210.646 29.2324C210.639 29.2484 210.628 29.262 210.613 29.2716C210.598 29.2812 210.581 29.2864 210.563 29.2865L206.889 29.2841C206.876 29.284 206.863 29.2812 206.851 29.2757C206.839 29.2702 206.828 29.2623 206.82 29.2524L199.999 21.4458C199.987 21.4319 199.97 21.422 199.952 21.4174C199.934 21.4128 199.915 21.4138 199.898 21.4202C199.881 21.4265 199.866 21.438 199.855 21.453C199.844 21.468 199.839 21.4859 199.838 21.5043L199.868 29.2085C199.868 29.2325 199.858 29.2554 199.841 29.2723C199.824 29.2892 199.801 29.2987 199.777 29.2987Z" fill="white"/>
</svg>
