<svg width="30" height="30" viewBox="0 0 30 30" fill="none" xmlns="http://www.w3.org/2000/svg">
<g id="Iconly/Bold/Calling">
<g id="Group">
<g id="Calling">
<path id="Fill 1" d="M18.0228 6.8622C17.4278 6.75227 16.8813 7.13201 16.768 7.71286C16.6547 8.29372 17.0356 8.86083 17.6145 8.9745C19.3573 9.31427 20.703 10.6633 21.0441 12.4121V12.4134C21.1412 12.9168 21.5844 13.2828 22.0948 13.2828C22.1633 13.2828 22.2318 13.2765 22.3015 13.2641C22.8803 13.1479 23.2613 12.582 23.148 11.9999C22.6388 9.38796 20.6284 7.3706 18.0228 6.8622Z" fill="white"/>
<path id="Fill 3" d="M17.9448 2.50991C17.666 2.46994 17.3859 2.55238 17.163 2.72976C16.934 2.90964 16.7908 3.16946 16.7597 3.46051C16.6937 4.04886 17.1182 4.58099 17.7058 4.64719C21.7579 5.09938 24.9074 8.25597 25.363 12.3207C25.424 12.8653 25.8809 13.2763 26.4262 13.2763C26.4672 13.2763 26.5071 13.2738 26.5482 13.2688C26.8332 13.2375 27.0872 13.0964 27.2665 12.8715C27.4445 12.6467 27.5254 12.3669 27.493 12.0808C26.9254 7.00932 23.0003 3.07328 17.9448 2.50991Z" fill="white"/>
</g>
</g>
<g id="Call">
<path id="Stroke 1" fill-rule="evenodd" clip-rule="evenodd" d="M13.7897 16.2155C18.776 21.2005 19.9072 15.4334 23.0821 18.606C26.1428 21.6659 27.902 22.279 24.024 26.1559C23.5383 26.5463 20.452 31.2428 9.60575 20.3996C-1.24185 9.555 3.45198 6.46556 3.84246 5.97994C7.72983 2.09231 8.33233 3.86173 11.3931 6.92166C14.568 10.0956 8.80332 11.2305 13.7897 16.2155Z" fill="white"/>
</g>
</g>
</svg>
