<svg width="27" height="26" viewBox="0 0 27 26" fill="none" xmlns="http://www.w3.org/2000/svg">
<g id="vuesax/linear/call-calling">
<g id="call-calling">
<g id="call-calling_2">
<path id="Vector" d="M24.3009 19.8573C24.3009 20.2473 24.2142 20.6482 24.0301 21.0382C23.8459 21.4282 23.6076 21.7965 23.2934 22.1432C22.7626 22.7282 22.1776 23.1507 21.5167 23.4215C20.8667 23.6923 20.1626 23.8332 19.4042 23.8332C18.2992 23.8332 17.1184 23.5732 15.8726 23.0423C14.6267 22.5115 13.3809 21.7965 12.1459 20.8973C10.9001 19.9873 9.71925 18.9798 8.59258 17.864C7.47675 16.7373 6.46925 15.5565 5.57008 14.3215C4.68175 13.0865 3.96675 11.8515 3.44675 10.6273C2.92675 9.39234 2.66675 8.2115 2.66675 7.08484C2.66675 6.34817 2.79675 5.644 3.05675 4.994C3.31675 4.33317 3.72841 3.7265 4.30258 3.18484C4.99591 2.50234 5.75425 2.1665 6.55592 2.1665C6.85925 2.1665 7.16258 2.2315 7.43341 2.3615C7.71508 2.4915 7.96425 2.6865 8.15925 2.96817L10.6726 6.51067C10.8676 6.7815 11.0084 7.03067 11.1059 7.269C11.2034 7.4965 11.2576 7.724 11.2576 7.92984C11.2576 8.18984 11.1817 8.44984 11.0301 8.699C10.8892 8.94817 10.6834 9.20817 10.4234 9.46817L9.60008 10.324C9.48091 10.4432 9.42675 10.584 9.42675 10.7573C9.42675 10.844 9.43758 10.9198 9.45925 11.0065C9.49175 11.0932 9.52425 11.1582 9.54592 11.2232C9.74092 11.5807 10.0767 12.0465 10.5534 12.6098C11.0409 13.1732 11.5609 13.7473 12.1242 14.3215C12.7092 14.8957 13.2726 15.4265 13.8467 15.914C14.4101 16.3907 14.8759 16.7157 15.2442 16.9107C15.2984 16.9323 15.3634 16.9648 15.4392 16.9973C15.5259 17.0298 15.6126 17.0407 15.7101 17.0407C15.8942 17.0407 16.0351 16.9757 16.1542 16.8565L16.9776 16.044C17.2484 15.7732 17.5084 15.5673 17.7576 15.4373C18.0067 15.2857 18.2559 15.2098 18.5267 15.2098C18.7326 15.2098 18.9492 15.2532 19.1876 15.3507C19.4259 15.4482 19.6751 15.589 19.9459 15.7732L23.5317 18.319C23.8134 18.514 24.0084 18.7415 24.1276 19.0123C24.2359 19.2832 24.3009 19.554 24.3009 19.8573Z" stroke="white" stroke-width="1.5" stroke-miterlimit="10"/>
<path id="Vector_2" d="M20.5417 9.74967C20.5417 9.09967 20.0325 8.10301 19.2742 7.29051C18.5808 6.54301 17.66 5.95801 16.75 5.95801" stroke="white" stroke-width="1.5" stroke-linecap="round" stroke-linejoin="round"/>
<path id="Vector_3" d="M24.3333 9.74984C24.3333 5.55734 20.9425 2.1665 16.75 2.1665" stroke="white" stroke-width="1.5" stroke-linecap="round" stroke-linejoin="round"/>
</g>
</g>
</g>
</svg>
