<svg width="24" height="22" viewBox="0 0 24 22" fill="none" xmlns="http://www.w3.org/2000/svg">
<path id="Subtract" fill-rule="evenodd" clip-rule="evenodd" d="M2.41667 21.0625H21.5833C22.0917 21.0625 22.5792 20.8606 22.9386 20.5011C23.2981 20.1417 23.5 19.6542 23.5 19.1458V5.72917C23.5 5.22083 23.2981 4.73332 22.9386 4.37388C22.5792 4.01443 22.0917 3.8125 21.5833 3.8125H17.7493L15.8326 0.9375H8.16596L6.2493 3.8125H2.41667C1.90833 3.8125 1.42082 4.01443 1.06138 4.37388C0.701934 4.73332 0.5 5.22083 0.5 5.72917V19.1458C0.5 19.6542 0.701934 20.1417 1.06138 20.5011C1.42082 20.8606 1.90833 21.0625 2.41667 21.0625ZM8.4375 11.9583C8.4375 9.99082 10.0325 8.39583 12 8.39583C13.9675 8.39583 15.5625 9.99082 15.5625 11.9583C15.5625 13.9258 13.9675 15.5208 12 15.5208C10.0325 15.5208 8.4375 13.9258 8.4375 11.9583ZM12 6.89583C9.20406 6.89583 6.9375 9.16239 6.9375 11.9583C6.9375 14.7543 9.20406 17.0208 12 17.0208C14.7959 17.0208 17.0625 14.7543 17.0625 11.9583C17.0625 9.16239 14.7959 6.89583 12 6.89583Z" fill="white"/>
</svg>
