<svg width="50" height="50" viewBox="0 0 50 50" fill="none" xmlns="http://www.w3.org/2000/svg">
<g id="mdi:leads">
<rect width="50" height="50" rx="15" fill="white" fill-opacity="0.1"/>
<path id="Vector" fill-rule="evenodd" clip-rule="evenodd" d="M29.8125 10C30.3172 10 30.8129 10.1433 31.25 10.4153C31.687 10.6874 32.0499 11.0788 32.3022 11.55H34.125C34.8875 11.55 35.6188 11.8766 36.1579 12.458C36.6971 13.0393 37 13.8278 37 14.65V33.25C37 35.3054 36.2427 37.2767 34.8948 38.7301C33.5469 40.1835 31.7187 41 29.8125 41H16.875C16.1125 41 15.3812 40.6734 14.8421 40.092C14.3029 39.5107 14 38.7222 14 37.9V14.65C14 13.8278 14.3029 13.0393 14.8421 12.458C15.3812 11.8766 16.1125 11.55 16.875 11.55H18.6978C18.9501 11.0788 19.313 10.6874 19.75 10.4153C20.1871 10.1433 20.6828 10 21.1875 10H29.8125ZM29.5595 21.4374L23.4616 28.0141L21.4276 25.8208C21.1564 25.5385 20.7933 25.3823 20.4164 25.3858C20.0395 25.3893 19.679 25.5523 19.4124 25.8397C19.1459 26.1271 18.9947 26.5159 18.9915 26.9223C18.9882 27.3287 19.1331 27.7202 19.3949 28.0126L22.3418 31.1916C22.4887 31.35 22.663 31.4757 22.8549 31.5614C23.0468 31.6471 23.2525 31.6913 23.4602 31.6913C23.6679 31.6913 23.8736 31.6471 24.0655 31.5614C24.2574 31.4757 24.4317 31.35 24.5786 31.1916L31.5936 23.6292C31.727 23.4851 31.8329 23.3142 31.9051 23.1261C31.9773 22.938 32.0144 22.7363 32.0143 22.5328C32.0143 22.3292 31.977 22.1276 31.9047 21.9395C31.8324 21.7514 31.7264 21.5806 31.5928 21.4367C31.4593 21.2928 31.3007 21.1786 31.1263 21.1008C30.9518 21.0229 30.7648 20.9829 30.576 20.983C30.3872 20.9831 30.2003 21.0232 30.0258 21.1012C29.8514 21.1792 29.693 21.2934 29.5595 21.4374ZM29.0938 13.1H21.9062C21.738 13.0999 21.5751 13.1635 21.4459 13.2796C21.3166 13.3958 21.2293 13.5571 21.199 13.7355L21.1875 13.875V15.425C21.1874 15.6064 21.2464 15.7821 21.3541 15.9214C21.4618 16.0607 21.6114 16.1549 21.7769 16.1876L21.9062 16.2H29.0938C29.262 16.2001 29.4249 16.1365 29.5541 16.0204C29.6834 15.9042 29.7707 15.7429 29.801 15.5645L29.8125 15.425V13.875C29.8126 13.6936 29.7536 13.5179 29.6459 13.3786C29.5382 13.2393 29.3886 13.145 29.2231 13.1124L29.0938 13.1Z" fill="white"/>
</g>
</svg>
