<svg width="60" height="60" viewBox="0 0 60 60" fill="none" xmlns="http://www.w3.org/2000/svg">
<g id="solar:document-bold">
<rect width="60" height="60" rx="30" fill="white" fill-opacity="0.1"/>
<path id="Vector" fill-rule="evenodd" clip-rule="evenodd" d="M17.8231 15.8752C16 17.7488 16 20.7664 16 26.8V33.2C16 39.2336 16 42.2512 17.8231 44.1248C19.6447 46 22.5784 46 28.4444 46H31.5556C37.4216 46 40.3553 46 42.1769 44.1248C44 42.2512 44 39.2336 44 33.2V26.8C44 20.7664 44 17.7488 42.1769 15.8752C40.3553 14 37.4216 14 31.5556 14H28.4444C22.5784 14 19.6447 14 17.8231 15.8752ZM23.7778 25.6C23.4684 25.6 23.1716 25.7264 22.9528 25.9515C22.734 26.1765 22.6111 26.4817 22.6111 26.8C22.6111 27.1183 22.734 27.4235 22.9528 27.6485C23.1716 27.8736 23.4684 28 23.7778 28H36.2222C36.5316 28 36.8284 27.8736 37.0472 27.6485C37.266 27.4235 37.3889 27.1183 37.3889 26.8C37.3889 26.4817 37.266 26.1765 37.0472 25.9515C36.8284 25.7264 36.5316 25.6 36.2222 25.6H23.7778ZM23.7778 32C23.4684 32 23.1716 32.1264 22.9528 32.3515C22.734 32.5765 22.6111 32.8817 22.6111 33.2C22.6111 33.5183 22.734 33.8235 22.9528 34.0485C23.1716 34.2736 23.4684 34.4 23.7778 34.4H31.5556C31.865 34.4 32.1617 34.2736 32.3805 34.0485C32.5993 33.8235 32.7222 33.5183 32.7222 33.2C32.7222 32.8817 32.5993 32.5765 32.3805 32.3515C32.1617 32.1264 31.865 32 31.5556 32H23.7778Z" fill="white"/>
</g>
</svg>
