<svg width="24" height="24" viewBox="0 0 24 24" fill="none" xmlns="http://www.w3.org/2000/svg">
<g id="ellipsis-vertical" opacity="0.8">
<path id="Vector" d="M12 14.2471C13.2426 14.2471 14.25 13.2397 14.25 11.9971C14.25 10.7544 13.2426 9.74707 12 9.74707C10.7574 9.74707 9.75 10.7544 9.75 11.9971C9.75 13.2397 10.7574 14.2471 12 14.2471Z" fill="white"/>
<path id="Vector_2" d="M12 21.7471C13.2426 21.7471 14.25 20.7397 14.25 19.4971C14.25 18.2544 13.2426 17.2471 12 17.2471C10.7574 17.2471 9.75 18.2544 9.75 19.4971C9.75 20.7397 10.7574 21.7471 12 21.7471Z" fill="white"/>
<path id="Vector_3" d="M12 6.74707C13.2426 6.74707 14.25 5.73971 14.25 4.49707C14.25 3.25443 13.2426 2.24707 12 2.24707C10.7574 2.24707 9.75 3.25443 9.75 4.49707C9.75 5.73971 10.7574 6.74707 12 6.74707Z" fill="white"/>
</g>
</svg>
