<svg width="25" height="21" viewBox="0 0 25 21" fill="none" xmlns="http://www.w3.org/2000/svg">
<g id="Group 92">
<g id="Group 88">
<path id="Vector" d="M20.16 9.07975V19.7464C20.16 19.9727 20.0701 20.1898 19.9101 20.3498C19.75 20.5098 19.533 20.5997 19.3067 20.5997H0.96C0.705392 20.5997 0.461213 20.4986 0.281178 20.3186C0.101143 20.1385 0 19.8944 0 19.6397V6.19975C0 5.94514 0.101143 5.70096 0.281178 5.52092C0.461213 5.34089 0.705392 5.23975 0.96 5.23975H6.4C6.60771 5.23975 6.80983 5.30712 6.976 5.43175L10.304 7.92775C10.4702 8.05238 10.6723 8.11975 10.88 8.11975H19.2C19.4546 8.11975 19.6988 8.22089 19.8788 8.40092C20.0589 8.58096 20.16 8.82514 20.16 9.07975Z" fill="white"/>
<path id="Vector_2" d="M3.83984 5.2399V2.3599C3.83984 2.10529 3.94099 1.86111 4.12102 1.68108C4.30106 1.50105 4.54524 1.3999 4.79984 1.3999H10.2398C10.4476 1.3999 10.6497 1.46727 10.8158 1.5919L14.1438 4.0879C14.31 4.21253 14.5121 4.2799 14.7198 4.2799H23.0398C23.2945 4.2799 23.5386 4.38105 23.7187 4.56108C23.8987 4.74111 23.9998 4.98529 23.9998 5.2399V15.9066C23.9998 16.0186 23.9778 16.1296 23.9349 16.2331C23.892 16.3367 23.8291 16.4307 23.7499 16.51C23.6707 16.5892 23.5766 16.6521 23.4731 16.6949C23.3695 16.7378 23.2586 16.7599 23.1465 16.7599H20.1598" stroke="white" stroke-width="1.5" stroke-linecap="round" stroke-linejoin="round"/>
</g>
</g>
</svg>
