<svg width="50" height="50" viewBox="0 0 50 50" fill="none" xmlns="http://www.w3.org/2000/svg">
<g id="mdi:leads">
<rect width="50" height="50" rx="15" fill="white" fill-opacity="0.1"/>
<g id="Group 23965">
<path id="Vector" d="M36.1822 13.2723H36.1802L39.5912 13.9541C39.7744 13.9907 39.925 14.125 39.9779 14.3062C40.0046 14.3942 40.007 14.4878 39.9848 14.577C39.9626 14.6662 39.9166 14.7478 39.8517 14.8129L37.0574 17.6093C36.7231 17.943 36.27 18.1304 35.7976 18.1303H33.4815L27.6608 23.953C27.7719 24.3723 27.7923 24.8105 27.7207 25.2383C27.6492 25.6661 27.4873 26.0738 27.2458 26.4341C27.0043 26.7944 26.6889 27.0991 26.3204 27.328C25.9519 27.5568 25.5389 27.7045 25.1089 27.7612C24.6788 27.8179 24.2417 27.7824 23.8265 27.6568C23.4113 27.5313 23.0276 27.3188 22.701 27.0334C22.3743 26.748 22.1123 26.3962 21.9323 26.0016C21.7523 25.607 21.6584 25.1785 21.657 24.7447C21.6573 24.2764 21.7653 23.8144 21.9726 23.3945C22.1799 22.9746 22.481 22.6079 22.8525 22.3229C23.2241 22.0378 23.6563 21.8421 24.1156 21.7507C24.5749 21.6593 25.0491 21.6747 25.5015 21.7957L31.3242 15.971V13.6569C31.3242 13.1848 31.5114 12.7309 31.8452 12.3972L34.6416 9.60078C34.7068 9.53592 34.7883 9.48993 34.8775 9.46771C34.9668 9.44549 35.0604 9.44787 35.1484 9.4746C35.3295 9.52751 35.4638 9.67812 35.5004 9.86129L36.1822 13.2723Z" fill="white"/>
<path id="Vector_2" d="M12.4986 24.7446C12.5007 26.4907 12.8773 28.2161 13.6029 29.8043C14.3285 31.3926 15.3862 32.8067 16.7048 33.9514C18.0234 35.0961 19.5722 35.9446 21.2466 36.4398C22.9211 36.9351 24.6822 37.0654 26.4113 36.8221C28.1404 36.5788 29.7972 35.9675 31.27 35.0295C32.7427 34.0914 33.9972 32.8484 34.9487 31.3843C35.9002 29.9202 36.5267 28.2691 36.7858 26.5423C37.045 24.8155 36.9308 23.0532 36.451 21.3743C36.3836 21.1782 36.3568 20.9704 36.3723 20.7636C36.3879 20.5567 36.4453 20.3552 36.5412 20.1713C36.637 19.9874 36.7693 19.825 36.93 19.6938C37.0906 19.5627 37.2763 19.4656 37.4757 19.4085C37.6751 19.3514 37.884 19.3354 38.0897 19.3616C38.2954 19.3879 38.4937 19.4557 38.6724 19.5609C38.851 19.6662 39.0064 19.8068 39.1291 19.974C39.2517 20.1413 39.339 20.3317 39.3857 20.5338C40.3148 23.7851 40.1384 27.2528 38.8839 30.393C37.6295 33.5332 35.3682 36.1681 32.4547 37.8843C29.5411 39.6006 26.1403 40.3011 22.7857 39.876C19.4311 39.4508 16.3125 37.9241 13.9192 35.5353C11.5285 33.1426 10.0002 30.0237 9.57405 26.6683C9.14793 23.3129 9.84821 19.911 11.5649 16.9967C13.2816 14.0824 15.9176 11.8208 19.0589 10.5669C22.2002 9.31292 25.669 9.13772 28.9207 10.0688C29.3079 10.1819 29.6345 10.4438 29.8292 10.7971C30.0239 11.1503 30.0709 11.5663 29.9598 11.9541C29.8488 12.3419 29.5887 12.67 29.2365 12.8666C28.8843 13.0633 28.4686 13.1125 28.0802 13.0035C26.2619 12.4818 24.3472 12.3896 22.4872 12.7342C20.6272 13.0788 18.8727 13.8507 17.3619 14.9891C15.8512 16.1275 14.6255 17.6012 13.7815 19.2942C12.9376 20.9871 12.4984 22.853 12.4986 24.7446Z" fill="white"/>
<path id="Vector_3" d="M18.6043 24.7448C18.6044 25.8572 18.9083 26.9485 19.483 27.9009C20.0578 28.8534 20.8817 29.6308 21.8659 30.1494C22.85 30.6679 23.9571 30.908 25.0677 30.8436C26.1782 30.7792 27.2501 30.4128 28.1677 29.784C29.0852 29.1536 29.8129 28.2843 30.272 27.2702C30.7312 26.2561 30.9043 25.1358 30.7728 24.0305C30.7372 23.7622 30.7738 23.4893 30.8787 23.2399C30.9837 22.9905 31.1532 22.7736 31.3698 22.6115C31.5865 22.4494 31.8424 22.3479 32.1113 22.3176C32.3802 22.2872 32.6523 22.3291 32.8996 22.4389C33.1469 22.5473 33.361 22.7193 33.5201 22.9374C33.6792 23.1555 33.7776 23.4119 33.8053 23.6804C34.0264 25.5693 33.654 27.4801 32.7399 29.1478C31.8257 30.8154 30.415 32.1571 28.7037 32.9866C26.9924 33.8162 25.0653 34.0924 23.1898 33.7769C21.3144 33.4614 19.5837 32.57 18.2379 31.2262C16.8921 29.8825 15.998 28.1532 15.6797 26.2782C15.3614 24.4033 15.6347 22.4757 16.4616 20.7631C17.2885 19.0505 18.6281 17.6379 20.2943 16.7211C21.9606 15.8044 23.8709 15.4292 25.7601 15.6474C25.9624 15.6662 26.1589 15.7252 26.3381 15.8209C26.5173 15.9166 26.6756 16.0471 26.8037 16.2048C26.9318 16.3624 27.0272 16.5441 27.0842 16.7391C27.1412 16.9341 27.1587 17.1385 27.1356 17.3403C27.1126 17.5422 27.0495 17.7374 26.9501 17.9146C26.8506 18.0917 26.7168 18.2472 26.5565 18.372C26.3961 18.4968 26.2125 18.5883 26.0163 18.6411C25.8202 18.694 25.6154 18.7072 25.4141 18.6799C24.5586 18.5806 23.6918 18.6633 22.8706 18.9228C22.0494 19.1822 21.2923 19.6125 20.6492 20.1853C20.006 20.7581 19.4914 21.4605 19.1389 22.2463C18.7865 23.0321 18.6043 23.8836 18.6043 24.7448Z" fill="white"/>
</g>
</g>
</svg>
