<svg width="19" height="20" viewBox="0 0 19 20" fill="none" xmlns="http://www.w3.org/2000/svg">
<g id="Group 1000003125">
<path id="Vector" d="M18.17 10.2107C18.17 9.43195 18.1082 8.8637 17.9743 8.27441H9.27043V11.7891H14.3794C14.2765 12.6625 13.7202 13.9779 12.4841 14.8618L12.4668 14.9795L15.2188 17.1575L15.4095 17.177C17.1605 15.5248 18.17 13.094 18.17 10.2107Z" fill="#4285F4"/>
<path id="Vector_2" d="M9.27038 19.4707C11.7734 19.4707 13.8746 18.6289 15.4094 17.1767L12.4841 14.8616C11.7013 15.4193 10.6506 15.8086 9.27038 15.8086C6.81889 15.8086 4.73821 14.1566 3.99651 11.873L3.88779 11.8825L1.02621 14.145L0.988792 14.2512C2.51324 17.345 5.64459 19.4707 9.27038 19.4707Z" fill="#34A853"/>
<path id="Vector_3" d="M3.99654 11.8732C3.80083 11.2839 3.68757 10.6525 3.68757 10.0001C3.68757 9.34762 3.80083 8.71625 3.98624 8.12696L3.98106 8.00146L1.08362 5.70264L0.98882 5.7487C0.36052 7.03254 0 8.47424 0 10.0001C0 11.5259 0.36052 12.9676 0.98882 14.2514L3.99654 11.8732Z" fill="#FBBC05"/>
<path id="Vector_4" d="M9.27038 4.19132C11.0111 4.19132 12.1854 4.95951 12.8549 5.60146L15.4712 2.99171C13.8644 1.46586 11.7734 0.529297 9.27038 0.529297C5.64459 0.529297 2.51324 2.65495 0.988792 5.74873L3.98621 8.12699C4.73821 5.84348 6.81889 4.19132 9.27038 4.19132Z" fill="#EB4335"/>
</g>
</svg>
