<svg width="27" height="26" viewBox="0 0 27 26" fill="none" xmlns="http://www.w3.org/2000/svg">
<g id="vuesax/bold/home-2">
<g id="home-2">
<path id="Vector" d="M22.2099 7.38816L15.9699 3.02233C14.2691 1.83066 11.6583 1.89566 10.0224 3.16316L4.59493 7.399C3.5116 8.244 2.65576 9.97733 2.65576 11.3423V18.8173C2.65576 21.5798 4.89826 23.8332 7.66076 23.8332H19.3391C22.1016 23.8332 24.3441 21.5907 24.3441 18.8282V11.4832C24.3441 10.0207 23.4016 8.22233 22.2099 7.38816ZM14.3124 19.4998C14.3124 19.944 13.9441 20.3123 13.4999 20.3123C13.0558 20.3123 12.6874 19.944 12.6874 19.4998V16.2498C12.6874 15.8057 13.0558 15.4373 13.4999 15.4373C13.9441 15.4373 14.3124 15.8057 14.3124 16.2498V19.4998Z" fill="white"/>
</g>
</g>
</svg>
