<svg width="27" height="26" viewBox="0 0 27 26" fill="none" xmlns="http://www.w3.org/2000/svg">
<g id="vuesax/linear/profile-2user">
<g id="profile-2user">
<path id="Vector" d="M10.4233 11.7757C10.3149 11.7648 10.1849 11.7648 10.0658 11.7757C7.48744 11.689 5.43994 9.5765 5.43994 6.9765C5.43994 4.32234 7.58494 2.1665 10.2499 2.1665C12.9041 2.1665 15.0599 4.32234 15.0599 6.9765C15.0491 9.5765 13.0016 11.689 10.4233 11.7757Z" stroke="white" stroke-width="1.5" stroke-linecap="round" stroke-linejoin="round"/>
<path id="Vector_2" d="M18.2776 4.3335C20.3792 4.3335 22.0692 6.03433 22.0692 8.12516C22.0692 10.1727 20.4442 11.841 18.4184 11.9168C18.3317 11.906 18.2342 11.906 18.1367 11.9168" stroke="white" stroke-width="1.5" stroke-linecap="round" stroke-linejoin="round"/>
<path id="Vector_3" d="M5.00678 15.7735C2.38511 17.5285 2.38511 20.3885 5.00678 22.1327C7.98594 24.126 12.8718 24.126 15.8509 22.1327C18.4726 20.3777 18.4726 17.5177 15.8509 15.7735C12.8826 13.791 7.99678 13.791 5.00678 15.7735Z" stroke="white" stroke-width="1.5" stroke-linecap="round" stroke-linejoin="round"/>
<path id="Vector_4" d="M20.3684 21.6665C21.1484 21.504 21.8851 21.1898 22.4917 20.724C24.1817 19.4565 24.1817 17.3657 22.4917 16.0982C21.8959 15.6432 21.1701 15.3398 20.4009 15.1665" stroke="white" stroke-width="1.5" stroke-linecap="round" stroke-linejoin="round"/>
</g>
</g>
</svg>
