<svg width="30" height="30" viewBox="0 0 30 30" fill="none" xmlns="http://www.w3.org/2000/svg">
<g id="Bold / Users / User Heart">
<path id="Vector" d="M20 7.5C20 10.2614 17.7614 12.5 15 12.5C12.2386 12.5 10 10.2614 10 7.5C10 4.73858 12.2386 2.5 15 2.5C17.7614 2.5 20 4.73858 20 7.5Z" fill="white"/>
<path id="Subtract" d="M19.5977 16.8785C19.0064 16.8856 18.4552 16.9072 17.9749 16.9718C17.1713 17.0798 16.2917 17.3381 15.5649 18.0649C14.8381 18.7917 14.5799 19.6713 14.4718 20.4749C14.3747 21.197 14.3749 22.0793 14.375 23.0175V23.2324C14.3749 24.1706 14.3747 25.0529 14.4718 25.7751C14.5476 26.339 14.6974 26.9403 15.0311 27.5C15.0208 27.5 15.0104 27.5 15 27.5C5 27.5 5 24.9816 5 21.875C5 18.7684 9.47715 16.25 15 16.25C16.6577 16.25 18.2212 16.4769 19.5977 16.8785Z" fill="white"/>
<path id="Subtract_2" fill-rule="evenodd" clip-rule="evenodd" d="M16.8907 26.8593C17.5314 27.5 18.5626 27.5 20.625 27.5C22.6874 27.5 23.7186 27.5 24.3593 26.8593C25 26.2186 25 25.1874 25 23.125C25 21.0626 25 20.0314 24.3593 19.3907C23.7186 18.75 22.6874 18.75 20.625 18.75C18.5626 18.75 17.5314 18.75 16.8907 19.3907C16.25 20.0314 16.25 21.0626 16.25 23.125C16.25 25.1874 16.25 26.2186 16.8907 26.8593ZM19.4082 24.9706C18.5307 24.3422 17.5 23.6042 17.5 22.3247C17.5 20.9123 19.2188 19.9107 20.625 21.2685C22.0312 19.9107 23.75 20.9123 23.75 22.3247C23.75 23.6042 22.7193 24.3422 21.8418 24.9706C21.7506 25.0359 21.661 25.1 21.5745 25.1635C21.25 25.4012 20.9375 25.625 20.625 25.625C20.3125 25.625 20 25.4012 19.6755 25.1635C19.589 25.1 19.4994 25.0359 19.4082 24.9706Z" fill="white"/>
</g>
</svg>
