<svg width="60" height="60" viewBox="0 0 60 60" fill="none" xmlns="http://www.w3.org/2000/svg">
<g id="solar:document-bold">
<rect width="60" height="60" rx="30" fill="white" fill-opacity="0.1"/>
<path id="Vector" d="M37.6316 19.2752C33.1406 14.9083 25.8594 14.9083 21.3684 19.2752C20.3022 20.305 19.4549 21.535 18.8765 22.8931C18.298 24.2512 18 25.7099 18 27.1835C18 28.657 18.298 30.1157 18.8765 31.4738C19.4549 32.8319 20.3022 34.062 21.3684 35.0917L29.4993 43L37.6316 35.0917C38.6978 34.062 39.5451 32.8319 40.1236 31.4738C40.702 30.1157 41 28.657 41 27.1835C41 25.7099 40.702 24.2512 40.1236 22.8931C39.5451 21.535 38.6978 20.305 37.6316 19.2752ZM29.4993 30.9209C28.539 30.9209 27.6376 30.5514 26.9577 29.8807C26.2845 29.2138 25.9065 28.3103 25.9065 27.3682C25.9065 26.4262 26.2845 25.5226 26.9577 24.8558C27.6362 24.185 28.539 23.8155 29.4993 23.8155C30.4596 23.8155 31.3624 24.185 32.0409 24.8558C32.714 25.5226 33.0921 26.4262 33.0921 27.3682C33.0921 28.3103 32.714 29.2138 32.0409 29.8807C31.3624 30.5514 30.4596 30.9209 29.4993 30.9209Z" fill="white"/>
</g>
</svg>
