<svg width="30" height="30" viewBox="0 0 30 30" fill="none" xmlns="http://www.w3.org/2000/svg">
<g id="Iconly/Bold/Logout">
<g id="Logout">
<path id="Logout_2" fill-rule="evenodd" clip-rule="evenodd" d="M12.3692 14.0375C11.8223 14.0375 11.3899 14.4625 11.3899 15C11.3899 15.525 11.8223 15.9625 12.3692 15.9625H20V21.9375C20 25 17.4691 27.5 14.3405 27.5H8.1468C5.03089 27.5 2.5 25.0125 2.5 21.95V8.0625C2.5 4.9875 5.0436 2.5 8.15952 2.5H14.3659C17.4691 2.5 20 4.9875 20 8.05V14.0375H12.3692ZM24.5378 10.6753L28.1877 14.3128C28.3752 14.5003 28.4753 14.7378 28.4753 15.0002C28.4753 15.2503 28.3752 15.5002 28.1877 15.6753L24.5378 19.3127C24.3503 19.5002 24.1003 19.6003 23.8627 19.6003C23.6127 19.6003 23.3627 19.5002 23.1752 19.3127C22.8002 18.9377 22.8002 18.3253 23.1752 17.9503L25.1752 15.9628H20.0002V14.0378H25.1752L23.1752 12.0503C22.8002 11.6753 22.8002 11.0627 23.1752 10.6877C23.5502 10.3003 24.1628 10.3003 24.5378 10.6753Z" fill="white"/>
</g>
</g>
</svg>
