<svg width="60" height="60" viewBox="0 0 60 60" fill="none" xmlns="http://www.w3.org/2000/svg">
<g id="solar:document-bold">
<rect width="60" height="60" rx="30" fill="white" fill-opacity="0.1"/>
<g id="Group 1000003148">
<path id="Vector" d="M26.2358 23.79L27.0408 25.2324C27.7673 26.5341 27.4756 28.2418 26.3314 29.386C26.3314 29.386 26.3314 29.386 26.3314 29.386C26.3313 29.3861 24.9437 30.774 27.4599 33.2902C29.9755 35.8058 31.3633 34.4195 31.3641 34.4187C31.3642 34.4187 31.3642 34.4187 31.3642 34.4186C32.5084 33.2745 34.216 32.9829 35.5177 33.7093L36.9601 34.5143C38.9258 35.6113 39.1579 38.3679 37.4302 40.0956C36.392 41.1338 35.1202 41.9416 33.7142 41.9949C31.3475 42.0846 27.3281 41.4857 23.2963 37.4538C19.2645 33.422 18.6655 29.4026 18.7552 27.0359C18.8085 25.6299 19.6163 24.3581 20.6545 23.32C22.3822 21.5922 25.1388 21.8244 26.2358 23.79Z" fill="white"/>
<g id="Vector_2">
<path d="M30.232 19.528C30.3141 19.0209 30.7935 18.6768 31.3007 18.7589C31.3321 18.7649 31.4331 18.7838 31.486 18.7956C31.5919 18.8192 31.7395 18.8555 31.9236 18.9091C32.2917 19.0163 32.8059 19.1929 33.4232 19.4759C34.6589 20.0424 36.3034 21.0335 38.0098 22.74C39.7163 24.4464 40.7073 26.0909 41.2739 27.3266C41.5568 27.9438 41.7335 28.4581 41.8407 28.8262C41.8943 29.0103 41.9306 29.1579 41.9542 29.2638C41.966 29.3167 41.9746 29.3592 41.9806 29.3906L41.9877 29.4293C42.0698 29.9364 41.7289 30.4357 41.2217 30.5178C40.716 30.5997 40.2396 30.2573 40.1555 29.7525C40.1529 29.739 40.1458 29.7025 40.1381 29.6682C40.1228 29.5995 40.0964 29.4906 40.0544 29.3465C39.9705 29.0583 39.8247 28.63 39.5826 28.102C39.0991 27.0473 38.2296 25.5909 36.6942 24.0555C35.1589 22.5202 33.7025 21.6507 32.6478 21.1672C32.1198 20.9251 31.6915 20.7793 31.4033 20.6954C31.2592 20.6534 31.0781 20.6119 31.0094 20.5966C30.5046 20.5124 30.1501 20.0338 30.232 19.528Z" fill="white"/>
<path fill-rule="evenodd" clip-rule="evenodd" d="M30.5126 23.8066C30.6538 23.3126 31.1686 23.0265 31.6626 23.1677L31.4071 24.0621C31.6626 23.1677 31.6626 23.1677 31.6626 23.1677L31.6644 23.1682L31.6663 23.1687L31.6705 23.1699L31.6801 23.1728L31.7046 23.1805C31.7233 23.1864 31.7467 23.1942 31.7745 23.2041C31.8302 23.2239 31.9039 23.252 31.9942 23.2907C32.1749 23.3681 32.4218 23.4877 32.725 23.6672C33.3322 24.0265 34.1609 24.6234 35.1346 25.597C36.1082 26.5706 36.705 27.3994 37.0644 28.0065C37.2438 28.3098 37.3634 28.5567 37.4409 28.7374C37.4796 28.8277 37.5077 28.9013 37.5275 28.957C37.5373 28.9849 37.5451 29.0082 37.5511 29.0269L37.5588 29.0515L37.5616 29.0611L37.5628 29.0652L37.5634 29.0671C37.5634 29.0671 37.5639 29.0689 36.6694 29.3245L37.5639 29.0689C37.705 29.5629 37.419 30.0778 36.925 30.219C36.4352 30.3589 35.9248 30.0789 35.7786 29.5926L35.7741 29.5792C35.7674 29.5606 35.7538 29.5239 35.7308 29.4703C35.6849 29.3632 35.6017 29.188 35.4632 28.9541C35.1867 28.4868 34.6872 27.7808 33.819 26.9126C32.9508 26.0444 32.2447 25.5449 31.7774 25.2683C31.5435 25.1299 31.3684 25.0467 31.2613 25.0008C31.2077 24.9778 31.171 24.9641 31.1523 24.9575L31.139 24.9529C30.6527 24.8067 30.3727 24.2964 30.5126 23.8066Z" fill="white"/>
</g>
</g>
</g>
</svg>
