<svg width="50" height="50" viewBox="0 0 50 50" fill="none" xmlns="http://www.w3.org/2000/svg">
<g id="mdi:leads">
<rect width="50" height="50" rx="15" fill="white" fill-opacity="0.1"/>
<path id="Vector" d="M36.4124 12.7674C35.2449 11.5759 33.8517 10.629 32.3141 9.98211C30.7765 9.33525 29.1254 9.00139 27.4573 9.00004H27.4099C25.7495 8.99577 24.1046 9.32097 22.5707 9.95681C21.0367 10.5926 19.6441 11.5265 18.4735 12.7043L9.66342 21.6297C9.23689 22.0611 8.99839 22.6437 9.00001 23.2504C9.00162 23.857 9.24322 24.4384 9.67203 24.8675L13.785 28.9808C13.9979 29.1947 14.2511 29.3644 14.53 29.4799C14.8088 29.5954 15.1078 29.6546 15.4096 29.6539H15.4225C15.7265 29.6522 16.0272 29.5902 16.307 29.4715C16.5869 29.3527 16.8404 29.1796 17.0528 28.9621L25.7926 20.0065C26.2193 19.584 26.794 19.3445 27.3945 19.3389C27.995 19.3332 28.574 19.5619 29.0087 19.9764C29.2235 20.1851 29.3942 20.4347 29.5108 20.7106C29.6274 20.9864 29.6875 21.2829 29.6875 21.5824C29.6904 21.9011 29.6304 22.2173 29.511 22.5128C29.3915 22.8083 29.215 23.0774 28.9914 23.3046L20.0522 31.9459C19.8338 32.1579 19.6598 32.4112 19.5402 32.6911C19.4207 32.971 19.3579 33.2718 19.3556 33.5762C19.3534 33.8805 19.4116 34.1823 19.527 34.4639C19.6424 34.7455 19.8126 35.0014 20.0278 35.2167L24.1408 39.3299C24.5696 39.7561 25.1486 39.9967 25.7532 40C26.3577 40.0032 26.9393 39.7687 27.3726 39.3472L36.2416 30.6714C41.1855 25.72 41.2616 17.6916 36.4124 12.7674ZM15.4096 27.3547L11.298 23.2429L15.5201 18.9646L19.6073 23.052L15.4096 27.3547ZM25.7624 37.7039L21.6466 33.592L25.9705 29.4113L30.0591 33.4987L25.7624 37.7039Z" fill="white"/>
</g>
</svg>
