<svg width="16" height="16" viewBox="0 0 16 16" fill="none" xmlns="http://www.w3.org/2000/svg">
<g id="iconoir:profile-circle" clip-path="url(#clip0_9_7746)">
<g id="Group">
<path id="Vector" d="M7.99992 1.33325C4.31792 1.33325 1.33325 4.31792 1.33325 7.99992C1.33325 11.6819 4.31792 14.6666 7.99992 14.6666C11.6819 14.6666 14.6666 11.6819 14.6666 7.99992C14.6666 4.31792 11.6819 1.33325 7.99992 1.33325Z" stroke="white" stroke-linecap="round" stroke-linejoin="round"/>
<path id="Vector_2" d="M2.84717 12.2307C2.84717 12.2307 4.33317 10.3333 7.99983 10.3333C11.6665 10.3333 13.1532 12.2307 13.1532 12.2307M7.99983 8C8.53027 8 9.03898 7.78929 9.41405 7.41421C9.78912 7.03914 9.99983 6.53043 9.99983 6C9.99983 5.46957 9.78912 4.96086 9.41405 4.58579C9.03898 4.21071 8.53027 4 7.99983 4C7.4694 4 6.96069 4.21071 6.58562 4.58579C6.21055 4.96086 5.99983 5.46957 5.99983 6C5.99983 6.53043 6.21055 7.03914 6.58562 7.41421C6.96069 7.78929 7.4694 8 7.99983 8Z" stroke="white" stroke-linecap="round" stroke-linejoin="round"/>
</g>
</g>
<defs>
<clipPath id="clip0_9_7746">
<rect width="16" height="16" fill="white"/>
</clipPath>
</defs>
</svg>
