<svg width="60" height="60" viewBox="0 0 60 60" fill="none" xmlns="http://www.w3.org/2000/svg">
<g id="solar:document-bold">
<rect width="60" height="60" rx="30" fill="white" fill-opacity="0.1"/>
<path id="Vector" d="M19.8182 42V38.9412H22.1455L25.0182 28.8853C25.2121 28.2225 25.5699 27.6939 26.0916 27.2993C26.6133 26.9047 27.1888 26.7069 27.8182 26.7059H32.1818C32.8121 26.7059 33.3881 26.9037 33.9098 27.2993C34.4315 27.6949 34.7888 28.2236 34.9818 28.8853L37.8545 38.9412H40.1818V42H19.8182ZM28.5455 23.6471V16H31.4545V23.6471H28.5455ZM37.2 27.4324L35.1273 25.2529L40.2909 19.8618L42.3273 22.0029L37.2 27.4324ZM38.7273 34.3529V31.2941H46V34.3529H38.7273ZM22.8 27.4324L17.6727 22.0029L19.7091 19.8618L24.8727 25.2529L22.8 27.4324ZM14 34.3529V31.2941H21.2727V34.3529H14Z" fill="white"/>
</g>
</svg>
