<svg width="50" height="50" viewBox="0 0 50 50" fill="none" xmlns="http://www.w3.org/2000/svg">
<g id="mdi:leads">
<rect width="50" height="50" rx="15" fill="white" fill-opacity="0.1"/>
<path id="Vector" d="M22.1905 14C25.5429 14 28.2857 16.6531 28.2857 19.8957C28.2857 23.1384 25.5429 25.7915 22.1905 25.7915C18.8381 25.7915 16.0952 23.1384 16.0952 19.8957C16.0952 16.6531 18.8381 14 22.1905 14ZM32.8571 39.0569L35.6 41.6657C36.3619 42.4027 37.4286 41.8131 37.4286 40.9435V34.6351L41.6952 29.6237C41.865 29.4047 41.9684 29.1443 41.9938 28.8717C42.0193 28.5991 41.9657 28.325 41.8391 28.0802C41.7126 27.8353 41.518 27.6294 41.2773 27.4855C41.0366 27.3416 40.7592 27.2654 40.4762 27.2654H29.8095C28.5905 27.2654 27.8286 28.7393 28.5905 29.6237L32.8571 34.6351V39.0569ZM29.8095 35.6668L26.3048 31.5398C25.6952 30.8028 25.3905 29.9185 25.3905 29.0341C24.3238 28.7393 23.2571 28.7393 22.1905 28.7393C15.4857 28.7393 10 31.3924 10 34.6351V37.5829H29.8095V35.6668Z" fill="white"/>
</g>
</svg>
