<svg width="20" height="18" viewBox="0 0 20 18" fill="none" xmlns="http://www.w3.org/2000/svg">
<g id="Hide">
<path id="Stroke 1" d="M7.76057 11.3667C7.18557 10.7927 6.83557 10.0127 6.83557 9.13768C6.83557 7.38468 8.24757 5.97168 9.99957 5.97168C10.8666 5.97168 11.6646 6.32268 12.2296 6.89668" stroke="#130F26" stroke-width="1.5" stroke-linecap="round" stroke-linejoin="round"/>
<path id="Stroke 3" d="M13.1047 9.69873C12.8727 10.9887 11.8567 12.0067 10.5677 12.2407" stroke="#130F26" stroke-width="1.5" stroke-linecap="round" stroke-linejoin="round"/>
<path id="Stroke 5" d="M4.65457 14.472C3.06757 13.226 1.72357 11.406 0.749573 9.13698C1.73357 6.85798 3.08657 5.02798 4.68357 3.77198C6.27057 2.51598 8.10157 1.83398 9.99957 1.83398C11.9086 1.83398 13.7386 2.52598 15.3356 3.79098" stroke="#130F26" stroke-width="1.5" stroke-linecap="round" stroke-linejoin="round"/>
<path id="Stroke 7" d="M17.4476 5.99072C18.1356 6.90472 18.7406 7.95972 19.2496 9.13672C17.2826 13.6937 13.8066 16.4387 9.99959 16.4387C9.13659 16.4387 8.28559 16.2987 7.46759 16.0257" stroke="#130F26" stroke-width="1.5" stroke-linecap="round" stroke-linejoin="round"/>
<path id="Stroke 9" d="M17.887 1.24951L2.11298 17.0235" stroke="#130F26" stroke-width="1.5" stroke-linecap="round" stroke-linejoin="round"/>
</g>
</svg>
