<svg width="20" height="18" viewBox="0 0 20 18" fill="none" xmlns="http://www.w3.org/2000/svg">
<g id="Hide">
<path id="Stroke 1" d="M7.76045 11.3667C7.18545 10.7927 6.83545 10.0127 6.83545 9.13768C6.83545 7.38468 8.24745 5.97168 9.99945 5.97168C10.8664 5.97168 11.6644 6.32268 12.2294 6.89668" stroke="white" stroke-width="1.5" stroke-linecap="round" stroke-linejoin="round"/>
<path id="Stroke 3" d="M13.1046 9.69873C12.8726 10.9887 11.8566 12.0067 10.5676 12.2407" stroke="white" stroke-width="1.5" stroke-linecap="round" stroke-linejoin="round"/>
<path id="Stroke 5" d="M4.65451 14.472C3.06751 13.226 1.72351 11.406 0.749512 9.13698C1.73351 6.85798 3.08651 5.02798 4.68351 3.77198C6.27051 2.51598 8.10151 1.83398 9.99951 1.83398C11.9085 1.83398 13.7385 2.52598 15.3355 3.79098" stroke="white" stroke-width="1.5" stroke-linecap="round" stroke-linejoin="round"/>
<path id="Stroke 7" d="M17.4475 5.99072C18.1355 6.90472 18.7405 7.95972 19.2495 9.13672C17.2825 13.6937 13.8065 16.4387 9.99953 16.4387C9.13653 16.4387 8.28553 16.2987 7.46753 16.0257" stroke="white" stroke-width="1.5" stroke-linecap="round" stroke-linejoin="round"/>
<path id="Stroke 9" d="M17.8868 1.24951L2.11279 17.0235" stroke="white" stroke-width="1.5" stroke-linecap="round" stroke-linejoin="round"/>
</g>
</svg>
