<svg width="20" height="20" viewBox="0 0 20 20" fill="none" xmlns="http://www.w3.org/2000/svg">
<g id="Group">
<path id="Vector" d="M0 19.9986L1.4148 14.8635C0.539206 13.3619 0.0791494 11.6535 0.0791494 9.91067C0.0840963 4.44577 4.5511 0 10.0421 0C12.7084 0 15.2066 1.0339 17.0864 2.90477C18.9662 4.77564 20.0001 7.26684 20.0001 9.9156C20.0001 15.3805 15.5281 19.8263 10.0421 19.8263H10.0371C8.37006 19.8263 6.73265 19.4078 5.27828 18.6201L0 19.9986Z" fill="white"/>
<path id="Vector_2" fill-rule="evenodd" clip-rule="evenodd" d="M7.46487 5.61257C7.27194 5.18424 7.06912 5.1744 6.88609 5.16947C6.73768 5.16455 6.56454 5.16455 6.3914 5.16455C6.21826 5.16455 5.94124 5.22855 5.70379 5.48457C5.46634 5.74058 4.80347 6.36092 4.80347 7.62622C4.80347 8.88659 5.72853 10.1076 5.85714 10.2799C5.98576 10.4522 7.64295 13.1256 10.2598 14.1546C12.4364 15.0112 12.8817 14.8389 13.3516 14.7946C13.8216 14.7503 14.8752 14.1743 15.0929 13.5736C15.3056 12.973 15.3056 12.4609 15.2413 12.3526C15.177 12.2443 15.0039 12.1803 14.7466 12.0523C14.4894 11.9243 13.223 11.3039 12.9855 11.2153C12.7481 11.1316 12.575 11.0873 12.4068 11.3433C12.2336 11.5993 11.7389 12.1754 11.5905 12.3477C11.4421 12.52 11.2888 12.5397 11.0315 12.4117C10.7743 12.2837 9.94324 12.0129 8.95881 11.1366C8.19205 10.4571 7.67263 9.61525 7.52423 9.35923C7.37582 9.10322 7.50939 8.96537 7.63801 8.83736C7.75178 8.72412 7.89524 8.53703 8.02386 8.38933C8.15248 8.24164 8.197 8.13332 8.2811 7.961C8.36519 7.78869 8.32562 7.64099 8.26131 7.51298C8.197 7.3899 7.69242 6.11968 7.46487 5.61257Z" fill="#343434"/>
</g>
</svg>
